<svg id="Capa_1" data-name="Capa 1" xmlns="http://www.w3.org/2000/svg" viewBox="0 0 100 89.78"><defs><style>.cls-1{fill:#ffcc03;}.cls-2{fill:#feca05;}</style></defs><title>Icono-Tualuce_color_1</title><path class="cls-1" d="M48.83,15.7l-9.62,31-1.73,5.95L30.67,74a31.74,31.74,0,0,1-4.89-4.53A32.33,32.33,0,0,1,42.69,16.5,32.54,32.54,0,0,1,48.83,15.7Z"/><path class="cls-2" d="M58.34,48.27A8.36,8.36,0,1,1,50,39.89,8.35,8.35,0,0,1,58.34,48.27Z"/><path class="cls-1" d="M82.35,48a32,32,0,0,1-8.18,21.45,31.62,31.62,0,0,1-5,4.62l-7-21.46-1.62-5.95-9.9-31a32.76,32.76,0,0,1,6.24.7A32.38,32.38,0,0,1,82.35,48Z"/><path d="M48.83,15.7l-9.62,31-1.73,5.95L30.67,74a31.74,31.74,0,0,1-4.89-4.53L42.69,16.5A32.54,32.54,0,0,1,48.83,15.7Z"/><path d="M74.17,69.46a31.62,31.62,0,0,1-5,4.62l-7-21.46-1.62-5.95-9.9-31a32.76,32.76,0,0,1,6.24.7Z"/><path class="cls-1" d="M58.34,48.27A8.36,8.36,0,1,1,50,39.89,8.35,8.35,0,0,1,58.34,48.27Z"/></svg>