<svg id="Capa_1" data-name="Capa 1" xmlns="http://www.w3.org/2000/svg" viewBox="0 0 181.78 88.67"><defs><style>.cls-1{fill:#000100;}.cls-2{fill:#1d1d1b;}.cls-3{fill:#ffcc03;}</style></defs><title>Logo-Tualuce_color</title><path class="cls-1" d="M55.35,64.53c0-.08,0-.14,0-.18a.52.52,0,0,0,0-.21v-.23a.72.72,0,0,1,0-.29,1.55,1.55,0,0,0,.07-.31.75.75,0,0,1,0-.26c0-.08.05-.17.08-.28l.06-.46a1.9,1.9,0,0,0,.11-.39,2.52,2.52,0,0,1,.11-.41v0c0-.07.08-.24.17-.5l.28-.85c.1-.3.19-.57.28-.81s.14-.37.15-.38.1-.29.13-.41a3,3,0,0,1,.15-.41,1.19,1.19,0,0,1,.08-.22,2.44,2.44,0,0,0,.1-.24,2.41,2.41,0,0,0,.18-.42,2,2,0,0,1,.16-.4l0,0,.23-.66a4.37,4.37,0,0,1,.27-.64c.08-.19.16-.37.23-.55a4.54,4.54,0,0,0,.19-.59l0-.18a.36.36,0,0,1,0-.11.28.28,0,0,0,0-.13c0-.07.07-.12.2-.16a.59.59,0,0,1,.3,0l.26.12a.18.18,0,0,1,.06.09.12.12,0,0,1,0,.11c-.08.26-.17.52-.27.77s-.2.51-.31.79l-.46,1.1a.19.19,0,0,0,0,.07s0,0,0,.07-.1.25-.14.37a2.14,2.14,0,0,1-.16.35,3,3,0,0,0-.22.57,2.31,2.31,0,0,1-.24.57c0,.09-.06.18-.1.27a1.63,1.63,0,0,0-.1.29c0,.07-.07.18-.13.35s-.12.35-.19.57-.13.43-.2.64-.12.39-.16.54-.06.19-.09.3a1.84,1.84,0,0,0-.07.3c0,.12,0,.23-.07.34a1.35,1.35,0,0,1-.11.32l-.14.61a1.81,1.81,0,0,0,0,.51,1.47,1.47,0,0,1,0,.36,1.56,1.56,0,0,0,0,.38.17.17,0,0,1,0,.1,1,1,0,0,0,0,.1.82.82,0,0,0,0,.35,2.22,2.22,0,0,0,.09.37l0,0a.11.11,0,0,0,0,.06h0a.13.13,0,0,1,.17,0,.15.15,0,0,1,.06.15.31.31,0,0,1-.1.17.48.48,0,0,1-.31.08.58.58,0,0,1-.42-.18.49.49,0,0,1-.18-.23c0-.09-.05-.19-.08-.29a1,1,0,0,0,0-.39A2.4,2.4,0,0,1,55.35,64.53Z"/><path class="cls-1" d="M59.93,63.65a.93.93,0,0,1-.22,0,1.58,1.58,0,0,0-.28-.08,2.08,2.08,0,0,1-.44-.29,1.12,1.12,0,0,1-.24-.47,1.18,1.18,0,0,1-.08-.74l.18-.64c.07-.12.13-.25.2-.38a2.39,2.39,0,0,0,.16-.38s0,0,0,0,0,0,0,0a.1.1,0,0,1,.08-.06h.1l.14.07.12.07,0,0a.07.07,0,0,0,0,0,.4.4,0,0,1,.13.22.4.4,0,0,1-.09.26l-.34.78c0,.12-.08.24-.11.36a.73.73,0,0,0,0,.36.37.37,0,0,0,.35.39,2.09,2.09,0,0,0,.61,0,4.59,4.59,0,0,0,.62-.15,5.46,5.46,0,0,0,.67-.26c.22-.1.43-.21.62-.32a4.59,4.59,0,0,0,.49-.33l.14-.12a0,0,0,0,1,0,0l.06,0,.2-.15.18-.15.18-.15a1.3,1.3,0,0,0,.19-.13l.22-.17a.42.42,0,0,1,.2-.1.13.13,0,0,1,.15.06.19.19,0,0,1,0,.19.2.2,0,0,0,0,.21l0,.12c0,.07-.06.11-.1.12l-.16,0-.26.22a2.72,2.72,0,0,0-.24.24l-.32.24-.21.15-.19.13-.24.16s0,0-.1,0a.25.25,0,0,0-.12,0,.69.69,0,0,1-.32.22l-.48.2-.69.2A1.76,1.76,0,0,1,59.93,63.65Zm.18-4.54a.27.27,0,0,0-.1,0L60,59,59.89,59a.45.45,0,0,1-.06-.36c0-.11.05-.22.08-.32a1,1,0,0,1,.16-.32c0-.07,0-.09,0-.06a.49.49,0,0,1,.2-.06.86.86,0,0,1,.34.22c.07,0,.1.08.09.13s0,.1,0,.17a.19.19,0,0,1,0,.07.43.43,0,0,0,0,.07,1.76,1.76,0,0,0-.24.38s0,0,0,.06A.33.33,0,0,1,60.11,59.11Z"/><path class="cls-1" d="M59.77,71.35a1.34,1.34,0,0,1,0-.49,3,3,0,0,1,.13-.45,6.23,6.23,0,0,1,.24-.65q.14-.32.3-.63l.4-.61c.13-.2.28-.39.42-.59s.13-.18.2-.26l.22-.24a.32.32,0,0,1,.1-.1l.1-.1.16-.22A.08.08,0,0,0,62.1,67l0,0a1.44,1.44,0,0,0,.28-.27,3.58,3.58,0,0,1,.26-.29,3.31,3.31,0,0,0,.27-.26c.09-.09.17-.19.25-.28l.18-.14.22-.19a1.45,1.45,0,0,0,.22-.21s.05,0,.1-.08a2.07,2.07,0,0,0,.24-.2.77.77,0,0,1,.3-.26,1.07,1.07,0,0,0,.36-.3l.08,0L66,63.61a2.16,2.16,0,0,0,.3-.18l.3-.2a.24.24,0,0,0,.08-.16,1,1,0,0,1,0-.26c0-.07,0-.16.07-.28s.07-.24.1-.37L67,61.8a1.16,1.16,0,0,0,0-.27.67.67,0,0,0,0-.2.39.39,0,0,0,0-.09v-.05a1.49,1.49,0,0,0-.4.3l-.16.16-.18.14-.34.3a.47.47,0,0,0-.1.1l-.1.12-.42.4a2.85,2.85,0,0,0-.33.25,2.26,2.26,0,0,1-.31.23l-.32.19-.32.17a.43.43,0,0,1-.22.06.67.67,0,0,0-.24,0,.3.3,0,0,0-.16,0,.27.27,0,0,1-.14-.07l-.2-.24a.55.55,0,0,1-.12-.56,2.55,2.55,0,0,1,.2-.54l.36-.52a1.1,1.1,0,0,1,.15-.16.61.61,0,0,0,.13-.16.11.11,0,0,1,.08-.08l.44-.44a3.64,3.64,0,0,1,.48-.4l.64-.4.52-.2a.61.61,0,0,1,.54.1.39.39,0,0,1,.15.13l.11.15a.15.15,0,0,1,.05.07l0,.07a.2.2,0,0,1,0,.09.2.2,0,0,0,0,.09l.08.07.08,0,.22.12a.6.6,0,0,1,.36.48,2.33,2.33,0,0,1,0,.32s0,.13-.06.23,0,.21-.08.33,0,.23-.07.34a1.52,1.52,0,0,0,0,.24v0l.08,0,.38-.2.36-.18a.91.91,0,0,1,.26-.13l.26-.11a3.63,3.63,0,0,1,.39-.16l.41-.14.08,0,.1,0a2.09,2.09,0,0,0,.3-.11.6.6,0,0,1,.3-.07.15.15,0,0,1,.11.08.27.27,0,0,0,.11.1l0,.16s0,.06,0,.06a.46.46,0,0,1-.16.08,3.68,3.68,0,0,0-.56.19l-.54.23-.14.05a.09.09,0,0,0-.06,0l-.05,0-.13.05-.18.1-.72.37a7.1,7.1,0,0,0-.7.41.41.41,0,0,0-.12.22c0,.11,0,.2-.07.28a1.78,1.78,0,0,0-.05.28c0,.06,0,.13,0,.2s0,.14,0,.22l-.2.8-.08.36a1,1,0,0,1,0,.18.78.78,0,0,0,0,.18,2.63,2.63,0,0,1-.18.54l-.11.23a.68.68,0,0,0,0,.27.24.24,0,0,1,0,.12,4,4,0,0,0-.27.64,3.76,3.76,0,0,1-.27.62l0,.06a3.18,3.18,0,0,1-.14.37,1.94,1.94,0,0,1-.2.33,3.17,3.17,0,0,1-.23.45l-.27.43c-.07.1-.13.21-.19.31a1.54,1.54,0,0,1-.23.29s0,0,0,0a3.68,3.68,0,0,1-.51.6l-.61.52a2.24,2.24,0,0,1-.34.27l-.4.21-.4.18-.23.11a.86.86,0,0,1-.27.05h0a.72.72,0,0,1-.32,0l-.32,0a1.67,1.67,0,0,1-.88-.58l-.08-.16q-.07-.21-.12-.39A.86.86,0,0,1,59.77,71.35Zm1.3,1,.33,0a1.29,1.29,0,0,0,.33-.07l.1-.06.33-.19.31-.19a1.28,1.28,0,0,0,.22-.12s0,0,.05,0l.07,0,.44-.4a1.88,1.88,0,0,0,.2-.2l.18-.22.19-.26a1.37,1.37,0,0,1,.19-.22,3.6,3.6,0,0,0,.34-.52,1.24,1.24,0,0,1,.22-.34c0-.09.08-.2.12-.3a1.37,1.37,0,0,1,.16-.32s0,0,0-.06,0,0,0-.06l0-.1a.31.31,0,0,1,0-.12,2.32,2.32,0,0,0,.18-.39c0-.14.11-.28.18-.43s.05-.17.08-.25a1,1,0,0,1,.1-.23.6.6,0,0,0,.08-.21.7.7,0,0,1,.08-.23l.08-.3.08-.34a2.65,2.65,0,0,0,.12-.37c0-.13.06-.25.1-.37a.58.58,0,0,0,0-.2l.08-.46.1-.42v-.08l0,0,0,0,0,0-.46.32-.53.38a5.37,5.37,0,0,0-.53.44l-.38.32c-.15.12-.29.23-.42.35a4.49,4.49,0,0,0-.4.37l-.38.4-.4.36-.36.4c-.11.15-.22.28-.34.42a4.78,4.78,0,0,0-.34.42l-.29.44a4,4,0,0,0-.27.44,2.67,2.67,0,0,0-.32.53l-.26.57,0,.12a2.3,2.3,0,0,0-.06.28c0,.09,0,.18,0,.26a1.37,1.37,0,0,0,0,.54.37.37,0,0,1,0,.14.15.15,0,0,0,0,.2l.14.19.18.19.09,0,.11,0Zm5-11.68a.34.34,0,0,0-.2,0l-.18.06-.22.1s-.06,0-.06,0l-.46.3a1.45,1.45,0,0,0-.4.38l-.44.38a3.09,3.09,0,0,0-.2.29l-.18.27-.12.22a.23.23,0,0,0,0,.22s0,0,0,0a.43.43,0,0,0,.26-.06,2.29,2.29,0,0,0,.56-.3,1.4,1.4,0,0,0,.18-.13l.18-.15a.64.64,0,0,0,.14-.1,1,1,0,0,0,.18-.15,1.2,1.2,0,0,1,.16-.17l.23-.17.23-.19.15-.18a.58.58,0,0,1,.17-.14.43.43,0,0,0,.14-.13,1,1,0,0,1,.12-.15s0,0,0-.06a.48.48,0,0,0-.16-.16l-.08,0Z"/><path class="cls-1" d="M73.23,53.05a3.32,3.32,0,0,1,0,.42c0,.13,0,.27-.07.42a1.85,1.85,0,0,1-.11.42l-.38,1.26-.21.72c-.07.24-.15.48-.23.72l-.36,1.06c0,.15-.08.28-.12.4l-.14.4c-.12.29-.23.58-.34.86s-.23.56-.36.84-.13.35-.19.52-.12.35-.17.54a.79.79,0,0,1-.06.22.48.48,0,0,0,0,.2.08.08,0,0,0,0,0h0l.12-.12.21-.28a1.94,1.94,0,0,1,.23-.26l.32-.32c.11-.11.21-.21.32-.3a.77.77,0,0,1,.19-.15,1.62,1.62,0,0,0,.19-.13.85.85,0,0,1,.86.06.76.76,0,0,1,.17.13l.15.15a.69.69,0,0,1,.22.32,1.25,1.25,0,0,1,.07.31,1.81,1.81,0,0,0,0,.31,1.66,1.66,0,0,0,.15.49,3,3,0,0,0,.27.43.7.7,0,0,0,.44.24,3,3,0,0,0,.84-.12,4.23,4.23,0,0,0,.72-.32l.59-.35a4.06,4.06,0,0,0,.53-.41.26.26,0,0,0,.14-.13.26.26,0,0,1,.14-.13.77.77,0,0,0,.13-.12l.11-.14a.19.19,0,0,1,.16-.07.16.16,0,0,1,.16,0s0,.05.08,0,0,0,.08.08,0,.07,0,.12l-.14.22-.23.26c-.06.06-.12.13-.19.19l-.21.18-.29.21-.26.19-.26.17-.39.22a1.38,1.38,0,0,1-.39.16,3.64,3.64,0,0,1-1,.14,1.92,1.92,0,0,1-.89-.22.18.18,0,0,1-.07,0,.18.18,0,0,0-.07,0,1.63,1.63,0,0,1-.51-.5,2.16,2.16,0,0,1-.25-.66c0-.11-.05-.21-.08-.3s-.05-.2-.08-.3a.53.53,0,0,0,0-.15.54.54,0,0,0-.07-.13.1.1,0,0,0-.16,0l-.12.06a3.89,3.89,0,0,1-.35.28,1.28,1.28,0,0,0-.29.28,3.47,3.47,0,0,1-.25.29,1.94,1.94,0,0,0-.23.27l-.34.47c-.11.15-.21.31-.32.49a.72.72,0,0,1-.11.19,1.27,1.27,0,0,0-.13.19.38.38,0,0,1-.09.09l-.09.07a.13.13,0,0,1-.16,0l-.19-.06a.33.33,0,0,1-.17-.1l-.12-.08a.4.4,0,0,1-.18-.42.59.59,0,0,1,0-.13.93.93,0,0,0,0-.13l.09-.49a2.77,2.77,0,0,1,.15-.49c0-.19.11-.37.16-.54a3.07,3.07,0,0,1,.2-.5c.15-.39.29-.77.43-1.15s.28-.76.43-1.15a3.8,3.8,0,0,0,.18-.47c.05-.17.11-.32.16-.47s.12-.37.17-.54a5.25,5.25,0,0,1,.17-.52c.07-.23.13-.46.2-.7s.13-.48.2-.7.11-.4.17-.6.12-.4.19-.6a2.63,2.63,0,0,1,.06-.39,1.84,1.84,0,0,0,0-.41,1,1,0,0,1,0-.3,2.68,2.68,0,0,0,0-.3.12.12,0,0,1,.12-.08.26.26,0,0,1,.18,0l.16.14a.62.62,0,0,1,.2.23A.27.27,0,0,1,73.23,53.05Z"/><path class="cls-1" d="M77.69,60.45a1.42,1.42,0,0,1,0-.22,1.94,1.94,0,0,0,.05-.2l0-.11.1-.33.12-.41a2.79,2.79,0,0,1,.12-.35,1.49,1.49,0,0,0,.12-.31,1.3,1.3,0,0,1,.12-.31,1.3,1.3,0,0,0,.1-.18l.12-.26c0-.09.07-.18.1-.26a.54.54,0,0,0,0-.18l0,0h0s0,0-.06,0l-.36.12-.56.2-.13,0h-.07l-.1,0-.23.07-.29.07a.34.34,0,0,1-.18-.08s-.06-.07,0-.13,0-.1,0-.11l0,0c0-.09,0-.15.07-.16l.17,0,.4-.14,0-.05s0,0,.08,0a1.11,1.11,0,0,1,.26-.1.24.24,0,0,1,.12,0,.8.8,0,0,1,.25-.11l.25,0,.08,0,.08,0,.18,0,.18-.07c.09,0,.14-.07.14-.1a.05.05,0,0,1,0,0v0l.12-.3.88-2.24s0-.07,0-.11a.88.88,0,0,1,.06-.17l.06-.1c0-.07.11-.1.24-.1a.45.45,0,0,1,.3.08l0,.1a.75.75,0,0,0,.07.12.4.4,0,0,1,0,.12.17.17,0,0,1,0,.14,11.39,11.39,0,0,0-.58,1.16c-.16.37-.33.76-.52,1.18,0,0,0,0,0,0a.08.08,0,0,1,.07,0c.28-.07.5-.12.65-.14s.36-.07.61-.14a.54.54,0,0,0,.22,0,.18.18,0,0,1,.2,0,.16.16,0,0,1,.1,0,.12.12,0,0,0,.1,0,.5.5,0,0,1,.36,0s.09,0,.12,0a.24.24,0,0,1,.23,0,.66.66,0,0,0,.25,0s0,0,0,0,0,0,0,0,.06,0,.07,0,0,0,0,0-.09.06-.08.09,0,.05,0,.05l-.3,0a1.28,1.28,0,0,0-.3.07h-.19a.77.77,0,0,0-.19.05l-.08,0a1.3,1.3,0,0,0-.47,0l-.49.11-.19.07-.17.07L80,57l-.3.1c-.07,0-.1,0-.11,0a.18.18,0,0,1,0,.08.49.49,0,0,0-.07.16c0,.09-.07.19-.1.3a2.65,2.65,0,0,1-.11.3l-.08.18c-.16.47-.32.9-.48,1.32a12.59,12.59,0,0,0-.42,1.27,13.18,13.18,0,0,0-.3,1.37,9.74,9.74,0,0,0-.12,1.6c0,.32,0,.55,0,.69a1.1,1.1,0,0,0,0,.29.29.29,0,0,0,.06.1s0,0,.07.1a.4.4,0,0,1,.21.09.26.26,0,0,1,.11.15.16.16,0,0,1-.05.15.38.38,0,0,1-.27.07.1.1,0,0,1-.08,0,2.42,2.42,0,0,1-.35-.15.53.53,0,0,1-.15-.25,1.73,1.73,0,0,1-.19-.76q0-.48,0-.84l0-.74a1.52,1.52,0,0,1,0-.28c0-.06,0-.15.06-.28a5.72,5.72,0,0,1,.11-.71c.06-.3.12-.54.17-.71Z"/><path class="cls-1" d="M82,63.65a.93.93,0,0,1-.22,0,1.58,1.58,0,0,0-.28-.08,2.08,2.08,0,0,1-.44-.29,1.12,1.12,0,0,1-.24-.47,1.18,1.18,0,0,1-.08-.74l.18-.64c.07-.12.13-.25.2-.38a2.39,2.39,0,0,0,.16-.38s0,0,0,0,0,0,0,0a.1.1,0,0,1,.08-.06h.1l.14.07.12.07,0,0a.07.07,0,0,0,0,0,.4.4,0,0,1,.13.22.4.4,0,0,1-.09.26l-.34.78c0,.12-.08.24-.11.36a.73.73,0,0,0,0,.36.37.37,0,0,0,.35.39,2.09,2.09,0,0,0,.61,0,4.59,4.59,0,0,0,.62-.15,5.46,5.46,0,0,0,.67-.26c.22-.1.43-.21.62-.32a4.59,4.59,0,0,0,.49-.33l.14-.12a0,0,0,0,1,0,0l.06,0,.2-.15.18-.15.18-.15a1.3,1.3,0,0,0,.19-.13l.22-.17a.42.42,0,0,1,.2-.1.13.13,0,0,1,.15.06.19.19,0,0,1,0,.19.2.2,0,0,0,0,.21l0,.12c0,.07-.06.11-.1.12l-.16,0-.26.22a2.72,2.72,0,0,0-.24.24l-.32.24-.21.15-.19.13-.24.16s0,0-.1,0a.25.25,0,0,0-.12,0,.69.69,0,0,1-.32.22c-.12,0-.28.11-.48.2l-.69.2A1.76,1.76,0,0,1,82,63.65Zm.18-4.54a.27.27,0,0,0-.1,0L82,59,82,59a.45.45,0,0,1-.06-.36c0-.11,0-.22.08-.32a1,1,0,0,1,.16-.32c0-.07,0-.09,0-.06a.49.49,0,0,1,.2-.06.86.86,0,0,1,.34.22c.07,0,.1.08.09.13s0,.1,0,.17a.19.19,0,0,1,0,.07.43.43,0,0,0,0,.07,1.76,1.76,0,0,0-.24.38s0,0,0,.06A.33.33,0,0,1,82.17,59.11Z"/><path class="cls-1" d="M90.71,63.07l.27-.15a2.66,2.66,0,0,0,.27-.17,7.73,7.73,0,0,0,.9-.7.35.35,0,0,1,.15-.13.44.44,0,0,0,.15-.13l.16-.18c0-.06,0-.08.06-.08s0,0,.08-.12v0s0,0,.08,0a.09.09,0,0,1,.11,0,.21.21,0,0,1,.11.07.24.24,0,0,1,.06.11.13.13,0,0,1,0,.12c0,.08,0,.11,0,.1s0,0-.08.08a.46.46,0,0,1-.07.13l-.13.17-.38.38-.42.38a1.41,1.41,0,0,1-.23.18,1.44,1.44,0,0,0-.25.18c-.12.08-.25.15-.38.22a1.88,1.88,0,0,1-.42.14.67.67,0,0,1-.24,0,.78.78,0,0,0-.22,0,1.72,1.72,0,0,1-.68-.12,2.2,2.2,0,0,1-.56-.3l-.34-.39a2.12,2.12,0,0,1-.28-.43,1.85,1.85,0,0,1-.22-.65,4.12,4.12,0,0,1-.06-.65.25.25,0,0,0,0-.16.38.38,0,0,1,0-.21.74.74,0,0,0,0-.21s0,0,0,0a0,0,0,0,0,0,0,.53.53,0,0,0-.21.11l-.17.13c-.19.15-.36.3-.53.46a4.14,4.14,0,0,0-.47.54,2.3,2.3,0,0,0-.32.38.87.87,0,0,0-.09.17c0,.07-.07.15-.1.24l-.1.26a.48.48,0,0,1-.11.19.52.52,0,0,1-.1.11l-.12.11a.22.22,0,0,1-.18.06s-.07,0,0,0,0,0,0-.06L85.23,63a.18.18,0,0,1,0-.24.22.22,0,0,1,0-.16,1.69,1.69,0,0,0,.14-.35c0-.14.08-.29.11-.44s.07-.3.11-.44a2.21,2.21,0,0,1,.14-.37l.08-.22s0-.08,0-.15l.06-.23c0-.08,0-.16.06-.22l0-.16c0-.08,0-.13.16-.16a.52.52,0,0,1,.46.12.15.15,0,0,1,0,.11l0,.2,0,.2a.15.15,0,0,0,0,.11s.05,0,.08,0l.3-.28a2.12,2.12,0,0,1,.3-.26.87.87,0,0,1,.32-.13l.32,0h.1a1.11,1.11,0,0,1,.52.26.31.31,0,0,1,.12.2,1.38,1.38,0,0,1,.06.26,1,1,0,0,1,0,.24,1.25,1.25,0,0,1,0,.21,1,1,0,0,0,0,.25v.14a.88.88,0,0,0,0,.4,2.11,2.11,0,0,1,.11.38c0,.05,0,.11.08.17a.34.34,0,0,0,.1.13l.14.21a.83.83,0,0,0,.16.17,1,1,0,0,0,.67.28A1.71,1.71,0,0,0,90.71,63.07Z"/><path class="cls-1" d="M88.67,71.35a1.34,1.34,0,0,1,0-.49,3,3,0,0,1,.13-.45,6.23,6.23,0,0,1,.24-.65q.14-.32.3-.63c.13-.22.27-.42.4-.61s.27-.39.42-.59.13-.18.2-.26l.22-.24a.32.32,0,0,1,.1-.1.47.47,0,0,0,.1-.1L91,67A.08.08,0,0,0,91,67a.08.08,0,0,1,0,0,1.44,1.44,0,0,0,.28-.27,3.58,3.58,0,0,1,.26-.29l.27-.26c.09-.09.17-.19.25-.28l.18-.14.22-.19a1.45,1.45,0,0,0,.22-.21s0,0,.1-.08a2.07,2.07,0,0,0,.24-.2.77.77,0,0,1,.3-.26,1.07,1.07,0,0,0,.36-.3l.08,0,1.06-.78a2.16,2.16,0,0,0,.3-.18l.3-.2a.24.24,0,0,0,.08-.16,1,1,0,0,1,0-.26c0-.07,0-.16.07-.28s.07-.24.1-.37.06-.25.09-.36a1.16,1.16,0,0,0,0-.27.67.67,0,0,0,0-.2.39.39,0,0,0,0-.09v-.05a1.49,1.49,0,0,0-.4.3l-.16.16-.18.14-.34.3a.47.47,0,0,0-.1.1l-.1.12-.42.4a2.85,2.85,0,0,0-.33.25,2.26,2.26,0,0,1-.31.23l-.32.19-.32.17a.43.43,0,0,1-.22.06.67.67,0,0,0-.24,0,.33.33,0,0,0-.16,0,.27.27,0,0,1-.14-.07l-.2-.24a.55.55,0,0,1-.12-.56,2.55,2.55,0,0,1,.2-.54l.36-.52a1.1,1.1,0,0,1,.15-.16.61.61,0,0,0,.13-.16.11.11,0,0,1,.08-.08c.15-.15.29-.3.44-.44a3.64,3.64,0,0,1,.48-.4l.64-.4.52-.2a.61.61,0,0,1,.54.1.39.39,0,0,1,.15.13l.11.15a.15.15,0,0,1,0,.07l0,.07a.2.2,0,0,1,0,.09.2.2,0,0,0,.05.09l.08.07.08,0,.22.12a.6.6,0,0,1,.36.48,2.33,2.33,0,0,1,0,.32s0,.13-.06.23,0,.21-.08.33-.05.23-.07.34a1.52,1.52,0,0,0,0,.24v0l.08,0,.38-.2a3,3,0,0,1,.36-.18.91.91,0,0,1,.26-.13l.26-.11a3.63,3.63,0,0,1,.39-.16l.41-.14.08,0,.1,0a2.09,2.09,0,0,0,.3-.11.6.6,0,0,1,.3-.07.15.15,0,0,1,.11.08.27.27,0,0,0,.11.1l0,.16s0,.06,0,.06a.46.46,0,0,1-.16.08,3.68,3.68,0,0,0-.56.19l-.54.23-.14.05a.09.09,0,0,0-.06,0l0,0-.13.05-.18.1-.72.37a7.1,7.1,0,0,0-.7.41.41.41,0,0,0-.12.22l-.07.28a1.78,1.78,0,0,0,0,.28c0,.06,0,.13,0,.2s0,.14,0,.22l-.2.8-.08.36a1,1,0,0,1,0,.18.78.78,0,0,0,0,.18,2.63,2.63,0,0,1-.18.54l-.11.23a.68.68,0,0,0,0,.27.24.24,0,0,1,0,.12,4,4,0,0,0-.27.64,3.76,3.76,0,0,1-.27.62l0,.06a3.18,3.18,0,0,1-.14.37,1.94,1.94,0,0,1-.2.33,3.17,3.17,0,0,1-.23.45l-.27.43c-.07.1-.13.21-.19.31a1.54,1.54,0,0,1-.23.29s0,0,0,0a3.68,3.68,0,0,1-.51.6l-.61.52a2.88,2.88,0,0,1-.34.27l-.4.21-.4.18-.23.11a.86.86,0,0,1-.27.05h0a.72.72,0,0,1-.32,0l-.32,0a1.67,1.67,0,0,1-.88-.58l-.08-.16q-.08-.21-.12-.39A.86.86,0,0,1,88.67,71.35Zm1.3,1,.33,0a1.4,1.4,0,0,0,.33-.07l.1-.06.33-.19.31-.19a1.28,1.28,0,0,0,.22-.12.05.05,0,0,1,0,0l.07,0,.44-.4a1.88,1.88,0,0,0,.2-.2l.18-.22.19-.26a1.37,1.37,0,0,1,.19-.22,3.6,3.6,0,0,0,.34-.52,1.24,1.24,0,0,1,.22-.34c0-.09.08-.2.12-.3a1.37,1.37,0,0,1,.16-.32s0,0,0-.06,0,0,0-.06l0-.1a.31.31,0,0,1,0-.12,2.32,2.32,0,0,0,.18-.39c.05-.14.11-.28.18-.43s0-.17.08-.25a1,1,0,0,1,.1-.23.6.6,0,0,0,.08-.21.7.7,0,0,1,.08-.23l.08-.3.08-.34a2.65,2.65,0,0,0,.12-.37c0-.13.06-.25.1-.37a.58.58,0,0,0,0-.2l.08-.46.1-.42v-.08l0,0,0,0a0,0,0,0,0,0,0l-.46.32-.53.38a5.37,5.37,0,0,0-.53.44l-.38.32c-.15.12-.29.23-.42.35a4.49,4.49,0,0,0-.4.37l-.38.4-.4.36-.36.4c-.11.15-.22.28-.34.42a4.78,4.78,0,0,0-.34.42l-.29.44a4,4,0,0,0-.27.44,2.67,2.67,0,0,0-.32.53l-.26.57,0,.12a1.27,1.27,0,0,0-.06.28c0,.09,0,.18,0,.26a1.37,1.37,0,0,0,0,.54.37.37,0,0,1,0,.14.15.15,0,0,0,0,.2l.14.19.18.19.09,0,.11,0Zm5-11.68a.34.34,0,0,0-.2,0l-.18.06-.22.1s-.06,0-.06,0l-.46.3a1.45,1.45,0,0,0-.4.38l-.44.38a3.09,3.09,0,0,0-.2.29l-.18.27-.12.22a.23.23,0,0,0,0,.22s0,0,0,0a.43.43,0,0,0,.26-.06,2.29,2.29,0,0,0,.56-.3,1.4,1.4,0,0,0,.18-.13l.18-.15.14-.1A1,1,0,0,0,94,62a1.2,1.2,0,0,1,.16-.17l.23-.17.23-.19a1.43,1.43,0,0,1,.15-.18.58.58,0,0,1,.17-.14.43.43,0,0,0,.14-.13l.12-.15s0,0,0-.06a.48.48,0,0,0-.16-.16l-.08,0Z"/><path class="cls-1" d="M105,63.65a.93.93,0,0,1-.22,0,1.58,1.58,0,0,0-.28-.08,2.08,2.08,0,0,1-.44-.29,1.12,1.12,0,0,1-.24-.47,1.18,1.18,0,0,1-.08-.74l.18-.64c.07-.12.13-.25.2-.38a2.39,2.39,0,0,0,.16-.38s0,0,0,0,0,0,0,0a.1.1,0,0,1,.08-.06h.1l.14.07.12.07,0,0a.07.07,0,0,0,0,0,.4.4,0,0,1,.13.22.4.4,0,0,1-.09.26l-.34.78c0,.12-.08.24-.11.36a.73.73,0,0,0,0,.36.37.37,0,0,0,.35.39,2.09,2.09,0,0,0,.61,0,4.59,4.59,0,0,0,.62-.15,5.46,5.46,0,0,0,.67-.26c.22-.1.43-.21.62-.32a4.59,4.59,0,0,0,.49-.33l.14-.12a0,0,0,0,1,0,0l.06,0,.2-.15.18-.15.18-.15a1.3,1.3,0,0,0,.19-.13l.22-.17a.42.42,0,0,1,.2-.1.13.13,0,0,1,.15.06.19.19,0,0,1,0,.19.2.2,0,0,0,0,.21l0,.12c0,.07-.06.11-.1.12l-.16,0-.26.22a2.72,2.72,0,0,0-.24.24l-.32.24-.21.15-.19.13-.24.16s0,0-.1,0a.25.25,0,0,0-.12,0,.69.69,0,0,1-.32.22c-.12,0-.28.11-.48.2l-.69.2A1.76,1.76,0,0,1,105,63.65Zm.18-4.54a.27.27,0,0,0-.1,0L105,59,105,59a.45.45,0,0,1-.06-.36c0-.11,0-.22.08-.32a1,1,0,0,1,.16-.32c0-.07,0-.09,0-.06a.49.49,0,0,1,.2-.06.86.86,0,0,1,.34.22c.07,0,.1.08.09.13s0,.1,0,.17a.19.19,0,0,1,0,.07.43.43,0,0,0,0,.07,1.76,1.76,0,0,0-.24.38s0,0,0,.06A.33.33,0,0,1,105.17,59.11Z"/><path class="cls-1" d="M113.71,63.07l.27-.15a2.66,2.66,0,0,0,.27-.17,7.73,7.73,0,0,0,.9-.7.35.35,0,0,1,.15-.13.44.44,0,0,0,.15-.13l.16-.18c0-.06,0-.08.06-.08s0,0,.08-.12v0s0,0,.08,0a.09.09,0,0,1,.11,0,.21.21,0,0,1,.11.07.24.24,0,0,1,.06.11.13.13,0,0,1,0,.12c0,.08,0,.11,0,.1s0,0-.08.08a.46.46,0,0,1-.07.13l-.13.17-.38.38-.42.38a1.41,1.41,0,0,1-.23.18,1.44,1.44,0,0,0-.25.18c-.12.08-.25.15-.38.22a1.88,1.88,0,0,1-.42.14.67.67,0,0,1-.24,0,.78.78,0,0,0-.22,0,1.72,1.72,0,0,1-.68-.12,2.2,2.2,0,0,1-.56-.3l-.34-.39a2.12,2.12,0,0,1-.28-.43,1.85,1.85,0,0,1-.22-.65,4.12,4.12,0,0,1-.06-.65.25.25,0,0,0,0-.16.38.38,0,0,1,0-.21.74.74,0,0,0,0-.21s0,0,0,0a0,0,0,0,0,0,0,.53.53,0,0,0-.21.11l-.17.13c-.19.15-.36.3-.53.46a4.14,4.14,0,0,0-.47.54,2.3,2.3,0,0,0-.32.38.87.87,0,0,0-.09.17c0,.07-.07.15-.1.24l-.1.26a.48.48,0,0,1-.11.19.52.52,0,0,1-.1.11l-.12.11a.22.22,0,0,1-.18.06s-.07,0,0,0,0,0,0-.06l-.26-.18a.18.18,0,0,1,0-.24.22.22,0,0,1,0-.16,1.69,1.69,0,0,0,.14-.35c0-.14.08-.29.11-.44s.07-.3.11-.44a2.21,2.21,0,0,1,.14-.37l.08-.22s0-.08,0-.15l.06-.23c0-.08,0-.16.06-.22l0-.16c0-.08,0-.13.16-.16a.52.52,0,0,1,.46.12.15.15,0,0,1,0,.11l0,.2,0,.2a.15.15,0,0,0,0,.11s.05,0,.08,0l.3-.28a2.12,2.12,0,0,1,.3-.26.87.87,0,0,1,.32-.13l.32,0h.1a1.11,1.11,0,0,1,.52.26.31.31,0,0,1,.12.2,1.38,1.38,0,0,1,.06.26,1,1,0,0,1,0,.24,1.25,1.25,0,0,1,0,.21,1,1,0,0,0,0,.25v.14a.88.88,0,0,0,0,.4,2.11,2.11,0,0,1,.11.38c0,.05,0,.11.08.17a.34.34,0,0,0,.1.13l.14.21a.83.83,0,0,0,.16.17,1,1,0,0,0,.67.28A1.71,1.71,0,0,0,113.71,63.07Z"/><path class="cls-1" d="M120.55,63.07l.27-.15a2.66,2.66,0,0,0,.27-.17,7.73,7.73,0,0,0,.9-.7.35.35,0,0,1,.15-.13.44.44,0,0,0,.15-.13l.16-.18c0-.06,0-.08.06-.08s0,0,.08-.12v0s0,0,.08,0a.09.09,0,0,1,.11,0,.21.21,0,0,1,.11.07.24.24,0,0,1,.06.11.13.13,0,0,1,0,.12c0,.08,0,.11,0,.1s0,0-.08.08a.46.46,0,0,1-.07.13l-.13.17-.38.38-.42.38a1.41,1.41,0,0,1-.23.18,1.44,1.44,0,0,0-.25.18c-.12.08-.25.15-.38.22a1.88,1.88,0,0,1-.42.14.67.67,0,0,1-.24,0,.78.78,0,0,0-.22,0,1.72,1.72,0,0,1-.68-.12,2.2,2.2,0,0,1-.56-.3l-.34-.39a2.12,2.12,0,0,1-.28-.43,1.85,1.85,0,0,1-.22-.65,4.12,4.12,0,0,1-.06-.65.25.25,0,0,0,0-.16.38.38,0,0,1,0-.21.74.74,0,0,0,0-.21s0,0,0,0a0,0,0,0,0,0,0,.53.53,0,0,0-.21.11l-.17.13c-.19.15-.36.3-.53.46a4.14,4.14,0,0,0-.47.54,2.3,2.3,0,0,0-.32.38.87.87,0,0,0-.09.17c0,.07-.07.15-.1.24l-.1.26a.48.48,0,0,1-.11.19.52.52,0,0,1-.1.11l-.12.11a.22.22,0,0,1-.18.06c-.05,0-.07,0,0,0s0,0,0-.06l-.26-.18a.18.18,0,0,1,0-.24.22.22,0,0,1,0-.16,1.69,1.69,0,0,0,.14-.35c0-.14.08-.29.11-.44s.07-.3.11-.44a2.21,2.21,0,0,1,.14-.37l.08-.22s0-.08,0-.15l.06-.23c0-.08,0-.16.06-.22l0-.16c0-.08,0-.13.16-.16a.52.52,0,0,1,.46.12.15.15,0,0,1,0,.11l0,.2,0,.2a.15.15,0,0,0,0,.11s0,0,.08,0l.3-.28a2.12,2.12,0,0,1,.3-.26.87.87,0,0,1,.32-.13l.32,0h.1a1.11,1.11,0,0,1,.52.26.31.31,0,0,1,.12.2,1.38,1.38,0,0,1,.06.26,1,1,0,0,1,0,.24,1.25,1.25,0,0,1,0,.21,1,1,0,0,0,0,.25v.14a.88.88,0,0,0,.05.4,2.11,2.11,0,0,1,.11.38c0,.05,0,.11.08.17a.34.34,0,0,0,.1.13l.14.21a.83.83,0,0,0,.16.17,1,1,0,0,0,.67.28A1.71,1.71,0,0,0,120.55,63.07Z"/><path class="cls-1" d="M125.19,60.67a.92.92,0,0,1,0,.41l-.1.29c0,.14-.09.26-.11.33a2.35,2.35,0,0,1-.13.33l0,.06a.06.06,0,0,0,0,.06l.77-.12.61-.13a4.11,4.11,0,0,0,.53-.17l.55-.24.19-.11.09-.07.11-.11L128,61l0,0s0,0,0,0a.26.26,0,0,1,.15-.06.19.19,0,0,1,.17,0s0,0,0,0,0,0,0,0,0,0,.07,0,.06,0,.05,0a.51.51,0,0,1-.32.4.67.67,0,0,1-.17.12.88.88,0,0,0-.19.1l-.37.25-.18.11-.17.08-.34.14a5.1,5.1,0,0,1-.86.28,4.37,4.37,0,0,1-1,.14h-.09l-.09,0s-.08,0-.09.06a1,1,0,0,0,0,.12.86.86,0,0,1-.21.24.86.86,0,0,0-.21.24l-.16.18a1.13,1.13,0,0,1-.82.38.79.79,0,0,1-.26,0,.4.4,0,0,1-.2-.07.8.8,0,0,1-.34-.34.94.94,0,0,1-.12-.44,1.94,1.94,0,0,1,.18-1.08c0-.11.06-.2.09-.29s.07-.19.11-.29a.79.79,0,0,0,0-.13.16.16,0,0,1,0-.09,1,1,0,0,0,.18-.34.88.88,0,0,1,.27-.35,1.76,1.76,0,0,0,.33-.31l.2-.14a1.2,1.2,0,0,1,.48-.18,1.62,1.62,0,0,1,.3,0,.53.53,0,0,1,.2,0,.56.56,0,0,1,.2.08A.31.31,0,0,1,125,60a.42.42,0,0,1,.13.22,2.25,2.25,0,0,1,0,.22A.66.66,0,0,1,125.19,60.67Zm-2.36,2.54c0,.3.13.33.46.08l.3-.28a1,1,0,0,0,.24-.38.23.23,0,0,0,0-.07,0,0,0,0,0,0-.05h-.09l-.34-.15a.81.81,0,0,1-.36-.29s0,0-.06,0a.38.38,0,0,0-.06.13,1.1,1.1,0,0,0-.13.46c0,.16,0,.31,0,.46Zm1.78-2.66c0-.11,0-.18-.14-.22a.28.28,0,0,0-.28,0,.37.37,0,0,1-.18.08,1.64,1.64,0,0,0-.39.4,2.76,2.76,0,0,0-.25.44.65.65,0,0,0-.1.36c0,.12,0,.21.18.28,0,0,0,0,0,.05a.16.16,0,0,1,.07.07l.25.11c.13,0,.2.06.23,0a1.81,1.81,0,0,0,.28-.54,4.88,4.88,0,0,1,.24-.58A1.06,1.06,0,0,0,124.61,60.55Z"/><path class="cls-1" d="M127.53,62.83a.38.38,0,0,1,0-.1.38.38,0,0,0,0-.1.67.67,0,0,0,.06-.3.11.11,0,0,1,0-.08.24.24,0,0,0,0-.08c0-.16.08-.33.13-.49s.08-.33.11-.47l.18-.54c0-.05,0-.09.08-.1s0,0,.06,0a.69.69,0,0,1,.42.3.19.19,0,0,1,0,.14c-.08.21-.15.42-.22.64s-.13.43-.2.64-.05.27-.08.42a3.11,3.11,0,0,0-.06.44l0,0,0,0,0,0a0,0,0,0,0,0,0,4.13,4.13,0,0,0,.68-.64,1.62,1.62,0,0,0,.18-.2.7.7,0,0,1,.2-.18l.4-.5.14-.19.12-.15a.05.05,0,0,1,0,0c.05-.07.11-.13.17-.2s.12-.13.17-.2l.09-.15a.36.36,0,0,1,.15-.15.5.5,0,0,0,.14-.16.83.83,0,0,1,.12-.16,1.33,1.33,0,0,1,.14-.19.76.76,0,0,0,.12-.19s0,0,0,0a.05.05,0,0,0,.05,0,1.33,1.33,0,0,0,.29-.29,1.87,1.87,0,0,1,.27-.31l.22-.16a1.23,1.23,0,0,1,.26-.12h.08s0,0,0,0,0,.06.08.08,0,.06,0,.11a.24.24,0,0,1-.06.11.76.76,0,0,0-.11.14.76.76,0,0,1-.11.14,3.4,3.4,0,0,0-.25.31l-.23.31-.36.46-.66.84-.59.77c-.19.25-.4.5-.61.75a1.51,1.51,0,0,0-.17.2,2.61,2.61,0,0,1-.17.2,1.15,1.15,0,0,1-.23.21l-.27.19a.61.61,0,0,1-.42,0,.76.76,0,0,1-.19-.12l-.15-.14a1.87,1.87,0,0,1-.2-.32A.55.55,0,0,1,127.53,62.83Z"/><path class="cls-1" d="M137,63.15a.79.79,0,0,1-.32-.06,2.69,2.69,0,0,1-.32-.19,1,1,0,0,1-.26-.27,2.36,2.36,0,0,1-.38-.78.05.05,0,0,0-.06-.06l-.34.34-.59.48a6,6,0,0,1-.59.44l-.39.22a1.42,1.42,0,0,1-.41.14,1.54,1.54,0,0,1-.5.08.49.49,0,0,1-.52-.36l-.16-.3a.63.63,0,0,1,0-.52,1,1,0,0,1,.13-.3,1.91,1.91,0,0,0,.15-.28l.22-.28a6.82,6.82,0,0,1,.59-.61,3.83,3.83,0,0,1,.65-.51l.34-.2a1.17,1.17,0,0,1,.6-.16.3.3,0,0,1,.26.1,1.11,1.11,0,0,1,.34.58.24.24,0,0,1,0,.12s-.07,0-.08,0l-.14-.12c-.07-.07-.13-.08-.18,0l-.32.07a.87.87,0,0,0-.32.13,2.53,2.53,0,0,0-.66.48.31.31,0,0,0-.14.12,2.84,2.84,0,0,0-.74.88.94.94,0,0,0-.22.46s0,.08,0,.08l.12,0h.1a1.36,1.36,0,0,1,.29-.06.79.79,0,0,0,.27-.1,3.4,3.4,0,0,0,1-.68l.48-.4.11-.07.09-.07.31-.34c.1-.11.2-.24.31-.38s.15-.12.24-.06l.18.09a.26.26,0,0,1,.14.13,1.3,1.3,0,0,0,0,.13.31.31,0,0,1,0,.13l0,.26a2.62,2.62,0,0,0,0,.28,1.44,1.44,0,0,0,.14.62l.09.05a.14.14,0,0,1,.09,0,1.05,1.05,0,0,0,.58.17,1.85,1.85,0,0,0,.6-.13l.28-.09a1.33,1.33,0,0,0,.28-.13,3.15,3.15,0,0,1,.44-.3,1.76,1.76,0,0,0,.4-.36l.22-.25a2.12,2.12,0,0,0,.2-.27l.06,0s0,0,.09,0,.09,0,.09,0l.08.12a.41.41,0,0,1-.09.37l-.23.33a3,3,0,0,1-1.05.94,2.93,2.93,0,0,1-1.19.36l-.18,0C137.1,63.18,137,63.18,137,63.15Z"/><path class="cls-1" d="M139.61,60.45a1.42,1.42,0,0,1,0-.22,1.94,1.94,0,0,0,.05-.2l0-.11.1-.33.12-.41a2.79,2.79,0,0,1,.12-.35,1.49,1.49,0,0,0,.12-.31,1.3,1.3,0,0,1,.12-.31,1.3,1.3,0,0,0,.1-.18l.12-.26c0-.09.07-.18.1-.26a.54.54,0,0,0,0-.18l0,0h0s-.05,0-.06,0l-.36.12-.56.2-.13,0h-.07l-.1,0-.23.07-.29.07a.34.34,0,0,1-.18-.08s-.06-.07,0-.13,0-.1,0-.11l0,0c0-.09,0-.15.07-.16l.17,0,.4-.14,0-.05s0,0,.08,0a1.11,1.11,0,0,1,.26-.1.24.24,0,0,1,.12,0A.8.8,0,0,1,140,57l.25,0,.08,0,.08,0,.18,0,.18-.07c.09,0,.14-.07.14-.1a.05.05,0,0,1,0,0v0l.12-.3.88-2.24s0-.07,0-.11a.88.88,0,0,1,.06-.17l.06-.1c0-.07.11-.1.24-.1a.45.45,0,0,1,.3.08l.05.1a.75.75,0,0,0,.07.12.4.4,0,0,1,0,.12.17.17,0,0,1,0,.14,11.39,11.39,0,0,0-.58,1.16c-.16.37-.33.76-.52,1.18,0,0,0,0,0,0a.08.08,0,0,1,.07,0c.28-.07.5-.12.65-.14s.36-.07.61-.14a.54.54,0,0,0,.22,0,.18.18,0,0,1,.2,0,.16.16,0,0,1,.1,0,.12.12,0,0,0,.1,0,.5.5,0,0,1,.36,0c.05,0,.09,0,.12,0a.24.24,0,0,1,.23,0,.66.66,0,0,0,.25,0s0,0,0,0,0,0,0,0,.06,0,.07,0,0,0,0,0-.09.06-.08.09,0,.05,0,.05l-.3,0a1.28,1.28,0,0,0-.3.07h-.19a.77.77,0,0,0-.19.05l-.08,0a1.3,1.3,0,0,0-.47,0l-.49.11-.19.07-.17.07-.34.06-.3.1c-.07,0-.1,0-.11,0a.18.18,0,0,1-.05.08.49.49,0,0,0-.07.16c0,.09-.07.19-.1.3a2.65,2.65,0,0,1-.11.3l-.08.18c-.16.47-.32.9-.48,1.32a12.59,12.59,0,0,0-.42,1.27,13.18,13.18,0,0,0-.3,1.37,9.74,9.74,0,0,0-.12,1.6c0,.32,0,.55,0,.69a1.1,1.1,0,0,0,.05.29.29.29,0,0,0,.06.1s0,0,.07.1a.4.4,0,0,1,.21.09.26.26,0,0,1,.11.15.16.16,0,0,1,0,.15.38.38,0,0,1-.27.07.1.1,0,0,1-.08,0,2.42,2.42,0,0,1-.35-.15.53.53,0,0,1-.15-.25,1.73,1.73,0,0,1-.19-.76q0-.48,0-.84l0-.74a1.52,1.52,0,0,1,0-.28c0-.06,0-.15.06-.28a5.72,5.72,0,0,1,.11-.71c.06-.3.12-.54.17-.71Z"/><path class="cls-1" d="M143.91,63.65a.93.93,0,0,1-.22,0,1.58,1.58,0,0,0-.28-.08,2.08,2.08,0,0,1-.44-.29,1.12,1.12,0,0,1-.24-.47,1.18,1.18,0,0,1-.08-.74l.18-.64c.07-.12.13-.25.2-.38a2.39,2.39,0,0,0,.16-.38s0,0,0,0,0,0,0,0a.1.1,0,0,1,.08-.06h.1l.14.07.12.07,0,0a.07.07,0,0,0,0,0,.4.4,0,0,1,.13.22.4.4,0,0,1-.09.26l-.34.78c0,.12-.08.24-.11.36a.73.73,0,0,0,0,.36.37.37,0,0,0,.35.39,2.09,2.09,0,0,0,.61,0,4.59,4.59,0,0,0,.62-.15,5.46,5.46,0,0,0,.67-.26c.22-.1.43-.21.62-.32a4.59,4.59,0,0,0,.49-.33l.14-.12a0,0,0,0,1,0,0l.06,0,.2-.15.18-.15.18-.15a1.3,1.3,0,0,0,.19-.13l.22-.17a.42.42,0,0,1,.2-.1.13.13,0,0,1,.15.06.19.19,0,0,1,0,.19.2.2,0,0,0,0,.21l0,.12c0,.07-.06.11-.1.12l-.16,0-.26.22a2.72,2.72,0,0,0-.24.24l-.32.24-.21.15-.19.13-.24.16s0,0-.1,0a.25.25,0,0,0-.12,0,.69.69,0,0,1-.32.22l-.48.2-.69.2A1.76,1.76,0,0,1,143.91,63.65Zm.18-4.54-.1,0-.06,0-.06-.06a.45.45,0,0,1-.06-.36c0-.11.05-.22.08-.32a1,1,0,0,1,.16-.32c0-.07,0-.09,0-.06a.49.49,0,0,1,.2-.06.86.86,0,0,1,.34.22c.07,0,.1.08.09.13s0,.1,0,.17a.19.19,0,0,1,0,.07.43.43,0,0,0,0,.07,1.76,1.76,0,0,0-.24.38s0,0,0,.06A.33.33,0,0,1,144.09,59.11Z"/><path class="cls-1" d="M150.43,60.67a.92.92,0,0,1,0,.41l-.1.29c-.05.14-.09.26-.11.33a2.35,2.35,0,0,1-.13.33l0,.06a.06.06,0,0,0,0,.06l.77-.12.61-.13a4.11,4.11,0,0,0,.53-.17l.55-.24.19-.11.09-.07.11-.11.27-.23,0,0s0,0,0,0a.26.26,0,0,1,.15-.06.19.19,0,0,1,.17,0s0,0,0,0l0,0s0,0,.07,0,.06,0,.05,0a.51.51,0,0,1-.32.4.67.67,0,0,1-.17.12.88.88,0,0,0-.19.1l-.37.25-.18.11-.17.08-.34.14a5.1,5.1,0,0,1-.86.28,4.37,4.37,0,0,1-1,.14H150l-.09,0s-.08,0-.09.06l0,.12a.86.86,0,0,1-.21.24.86.86,0,0,0-.21.24l-.16.18a1.13,1.13,0,0,1-.82.38.79.79,0,0,1-.26,0,.4.4,0,0,1-.2-.07.8.8,0,0,1-.34-.34.94.94,0,0,1-.12-.44,1.94,1.94,0,0,1,.18-1.08c0-.11.06-.2.09-.29s.07-.19.11-.29a.79.79,0,0,0,.05-.13.16.16,0,0,1,0-.09,1,1,0,0,0,.18-.34.88.88,0,0,1,.27-.35,1.76,1.76,0,0,0,.33-.31l.2-.14a1.2,1.2,0,0,1,.48-.18,1.62,1.62,0,0,1,.3,0,.53.53,0,0,1,.2,0,.56.56,0,0,1,.2.08.31.31,0,0,1,.14.16.42.42,0,0,1,.13.22,2.25,2.25,0,0,1,.05.22A.66.66,0,0,1,150.43,60.67Zm-2.36,2.54c0,.3.13.33.46.08l.3-.28a1,1,0,0,0,.24-.38.23.23,0,0,0,.05-.07,0,0,0,0,0,0-.05H149l-.34-.15a.81.81,0,0,1-.36-.29s0,0-.06,0a.38.38,0,0,0-.06.13,1.1,1.1,0,0,0-.13.46c0,.16,0,.31,0,.46Zm1.78-2.66c0-.11,0-.18-.14-.22a.28.28,0,0,0-.28,0,.37.37,0,0,1-.18.08,1.64,1.64,0,0,0-.39.4,2.76,2.76,0,0,0-.25.44.65.65,0,0,0-.1.36c0,.12,0,.21.18.28,0,0,0,0,.05.05a.16.16,0,0,1,.07.07l.25.11c.13,0,.2.06.23,0a1.81,1.81,0,0,0,.28-.54,4.88,4.88,0,0,1,.24-.58A1.06,1.06,0,0,0,149.85,60.55Z"/><path class="cls-1" d="M158.15,63.07a1.54,1.54,0,0,1,.27-.15,2.66,2.66,0,0,0,.27-.17,7.73,7.73,0,0,0,.9-.7.35.35,0,0,1,.15-.13.44.44,0,0,0,.15-.13l.16-.18c0-.06,0-.08.06-.08s0,0,.08-.12v0s0,0,.08,0a.09.09,0,0,1,.11,0,.21.21,0,0,1,.11.07.39.39,0,0,1,.06.11.17.17,0,0,1,0,.12,1,1,0,0,0,0,.1s0,0-.08.08a.46.46,0,0,1-.07.13l-.13.17-.38.38-.42.38a1.41,1.41,0,0,1-.23.18,1.44,1.44,0,0,0-.25.18c-.12.08-.25.15-.38.22a2.07,2.07,0,0,1-.42.14.67.67,0,0,1-.24,0,.78.78,0,0,0-.22,0,1.69,1.69,0,0,1-.68-.12,2.2,2.2,0,0,1-.56-.3l-.34-.39a2.12,2.12,0,0,1-.28-.43,1.85,1.85,0,0,1-.22-.65,4.12,4.12,0,0,1-.06-.65.35.35,0,0,0,0-.16.38.38,0,0,1,0-.21.74.74,0,0,0,0-.21s0,0,0,0a0,0,0,0,0,0,0,.53.53,0,0,0-.21.11l-.17.13a6,6,0,0,0-.53.46,3.5,3.5,0,0,0-.47.54,2.3,2.3,0,0,0-.32.38.87.87,0,0,0-.09.17,1.33,1.33,0,0,0-.1.24l-.1.26a.63.63,0,0,1-.11.19.52.52,0,0,1-.1.11l-.12.11a.22.22,0,0,1-.18.06c-.05,0-.07,0,0,0s0,0,0-.06l-.26-.18a.17.17,0,0,1,0-.24.22.22,0,0,1,0-.16,1.69,1.69,0,0,0,.14-.35c0-.14.08-.29.11-.44s.07-.3.11-.44a1.59,1.59,0,0,1,.14-.37l.08-.22s0-.08,0-.15l.06-.23c0-.08,0-.16.06-.22a1,1,0,0,1,.05-.16c0-.08,0-.13.16-.16a.52.52,0,0,1,.46.12.15.15,0,0,1,0,.11l0,.2a1.62,1.62,0,0,0,0,.2c0,.06,0,.1,0,.11a0,0,0,0,0,.08,0l.3-.28a1.68,1.68,0,0,1,.3-.26.8.8,0,0,1,.32-.13l.32,0h.1a1.11,1.11,0,0,1,.52.26.31.31,0,0,1,.12.2,1.38,1.38,0,0,1,.06.26,1,1,0,0,1,0,.24,1.25,1.25,0,0,1,0,.21,1,1,0,0,0,0,.25v.14a.88.88,0,0,0,.05.4,3.44,3.44,0,0,1,.11.38l.08.17a.27.27,0,0,0,.1.13l.14.21a.83.83,0,0,0,.16.17,1,1,0,0,0,.67.28A1.71,1.71,0,0,0,158.15,63.07Z"/><path class="cls-2" d="M31.48,51.16H29.13V23.86H22v-2.1H38.87v2.1H31.48Z"/><path class="cls-2" d="M57.31,43.69v-22h2.35V43.35a9.09,9.09,0,0,1-.77,3.87,6.12,6.12,0,0,1-2.1,2.52A10.3,10.3,0,0,1,54,51a11.42,11.42,0,0,1-3.15.42A11.67,11.67,0,0,1,47.67,51a10.09,10.09,0,0,1-2.81-1.3,6.12,6.12,0,0,1-2.1-2.52A8.94,8.94,0,0,1,42,43.35V21.72h2.35v22A5.08,5.08,0,0,0,46.2,47.8a7,7,0,0,0,4.6,1.56,7,7,0,0,0,4.62-1.56A5,5,0,0,0,57.31,43.69Z"/><polygon class="cls-2" points="75.62 40.87 78.98 51.16 81.5 51.16 71.93 21.76 69.7 21.76 60.29 51.16 62.77 51.16 66.05 40.87 66.72 38.56 70.79 25.42 74.99 38.56 75.62 40.87"/><path class="cls-2" d="M100.36,51.16H85.2V21.76h2.35v27.3h12.81Z"/><path class="cls-2" d="M118.84,43.69v-22h2.35V43.35a8.94,8.94,0,0,1-.78,3.87,6,6,0,0,1-2.09,2.52,10.3,10.3,0,0,1-2.8,1.3,11.42,11.42,0,0,1-3.15.42A11.67,11.67,0,0,1,109.2,51a10.09,10.09,0,0,1-2.81-1.3,6,6,0,0,1-2.1-2.52,8.94,8.94,0,0,1-.78-3.87V21.72h2.35v22a5.08,5.08,0,0,0,1.87,4.11,7,7,0,0,0,4.6,1.56A7,7,0,0,0,117,47.8,5,5,0,0,0,118.84,43.69Z"/><path class="cls-2" d="M142.11,50.2a18.88,18.88,0,0,1-6.81,1.38c-.44,0-1.12,0-2-.12a7.75,7.75,0,0,1-2.9-1,6,6,0,0,1-2.48-2.6,9.4,9.4,0,0,1-.94-4.43V30a10.26,10.26,0,0,1,.9-4.83,7.54,7.54,0,0,1,2.75-2.78,9.11,9.11,0,0,1,4.49-1.05,13,13,0,0,1,6,1.39l-.67,1.6a13.14,13.14,0,0,0-4.54-.89q-6.56,0-6.55,6.18V43.39c0,3.67,1.77,5.67,5.33,6a4.18,4.18,0,0,0,.88.08,18.87,18.87,0,0,0,6.09-1.26Z"/><path class="cls-2" d="M159.7,51.16H145.76V21.76h14V24H148.11v9.87h8l-.8,2.31h-7.23V49.06H159.7Z"/><circle class="cls-3" cx="70.9" cy="39.18" r="3.24"/></svg>