<?xml version="1.0" encoding="UTF-8" standalone="no"?>
<svg
   xmlns:dc="http://purl.org/dc/elements/1.1/"
   xmlns:cc="http://creativecommons.org/ns#"
   xmlns:rdf="http://www.w3.org/1999/02/22-rdf-syntax-ns#"
   xmlns:svg="http://www.w3.org/2000/svg"
   xmlns="http://www.w3.org/2000/svg"
   xmlns:sodipodi="http://sodipodi.sourceforge.net/DTD/sodipodi-0.dtd"
   xmlns:inkscape="http://www.inkscape.org/namespaces/inkscape"
   id="Capa_1"
   data-name="Capa 1"
   viewBox="0 0 137.76 30.243113"
   version="1.1"
   sodipodi:docname="Logotipo-color SIN LEMA.svg"
   width="137.75999"
   height="30.243113"
   inkscape:version="0.92.4 (5da689c313, 2019-01-14)">
  <metadata
     id="metadata27">
    <rdf:RDF>
      <cc:Work
         rdf:about="">
        <dc:format>image/svg+xml</dc:format>
        <dc:type
           rdf:resource="http://purl.org/dc/dcmitype/StillImage" />
        <dc:title>Logotipo-color SIN LEMA</dc:title>
      </cc:Work>
    </rdf:RDF>
  </metadata>
  <sodipodi:namedview
     pagecolor="#ffffff"
     bordercolor="#666666"
     borderopacity="1"
     objecttolerance="10"
     gridtolerance="10"
     guidetolerance="10"
     inkscape:pageopacity="0"
     inkscape:pageshadow="2"
     inkscape:window-width="2400"
     inkscape:window-height="1261"
     id="namedview25"
     showgrid="false"
     fit-margin-top="0"
     fit-margin-left="0"
     fit-margin-right="0"
     fit-margin-bottom="0"
     inkscape:zoom="1.8648916"
     inkscape:cx="68.889999"
     inkscape:cy="15.115001"
     inkscape:window-x="-9"
     inkscape:window-y="-9"
     inkscape:window-maximized="1"
     inkscape:current-layer="Capa_1" />
  <defs
     id="defs4">
    <style
       id="style2">.cls-1{fill:#1d1d1b;}.cls-2{fill:#ffcc03;}</style>
  </defs>
  <title
     id="title6">Logotipo-color SIN LEMA</title>
  <path
     class="cls-1"
     d="M 9.48,29.793112 H 7.13 v -27.27 H 0 V 0.42311203 H 16.87 V 2.523112 H 9.48 Z"
     id="path8"
     inkscape:connector-curvature="0"
     style="fill:#1d1d1b" />
  <path
     class="cls-1"
     d="M 35.31,22.353112 V 0.35311203 h 2.35 V 22.013112 a 9.09,9.09 0 0 1 -0.77,3.87 6.12,6.12 0 0 1 -2.1,2.52 10.3,10.3 0 0 1 -2.8,1.3 11.42,11.42 0 0 1 -3.15,0.42 11.67,11.67 0 0 1 -3.17,-0.42 10.09,10.09 0 0 1 -2.81,-1.3 6.12,6.12 0 0 1 -2.1,-2.52 8.94,8.94 0 0 1 -0.76,-3.87 V 0.38311203 h 2.35 V 22.383112 a 5.08,5.08 0 0 0 1.87,4.11 7,7 0 0 0 4.6,1.56 7,7 0 0 0 4.62,-1.56 5,5 0 0 0 1.87,-4.14 z"
     id="path10"
     inkscape:connector-curvature="0"
     style="fill:#1d1d1b" />
  <polygon
     class="cls-1"
     points="81.5,59.03 71.93,29.63 69.7,29.63 60.29,59.03 62.77,59.03 66.05,48.74 66.72,46.43 70.79,33.29 74.99,46.43 75.62,48.74 78.98,59.03 "
     id="polygon12"
     style="fill:#1d1d1b"
     transform="translate(-22,-29.206888)" />
  <path
     class="cls-1"
     d="M 78.36,29.793112 H 63.2 V 0.42311203 h 2.35 V 27.723112 h 12.81 z"
     id="path14"
     inkscape:connector-curvature="0"
     style="fill:#1d1d1b" />
  <path
     class="cls-1"
     d="M 96.84,22.353112 V 0.35311203 h 2.35 V 22.013112 a 8.94,8.94 0 0 1 -0.78,3.87 6,6 0 0 1 -2.09,2.52 10.3,10.3 0 0 1 -2.8,1.3 11.42,11.42 0 0 1 -3.15,0.42 11.67,11.67 0 0 1 -3.17,-0.42 10.09,10.09 0 0 1 -2.81,-1.3 6,6 0 0 1 -2.1,-2.52 8.94,8.94 0 0 1 -0.78,-3.87 V 0.38311203 h 2.35 V 22.383112 a 5.08,5.08 0 0 0 1.87,4.11 7,7 0 0 0 4.6,1.56 7,7 0 0 0 4.67,-1.59 5,5 0 0 0 1.84,-4.11 z"
     id="path16"
     inkscape:connector-curvature="0"
     style="fill:#1d1d1b" />
  <path
     class="cls-1"
     d="m 120.11,28.863112 a 18.88,18.88 0 0 1 -6.81,1.38 c -0.44,0 -1.12,0 -2,-0.12 a 7.75,7.75 0 0 1 -2.9,-0.95 6,6 0 0 1 -2.48,-2.6 9.4,9.4 0 0 1 -0.94,-4.43 v -13.48 a 10.26,10.26 0 0 1 0.9,-4.83 7.54,7.54 0 0 1 2.75,-2.78 9.11,9.11 0 0 1 4.49,-1.04999997 13,13 0 0 1 6,1.38999997 l -0.67,1.6 a 13.14,13.14 0 0 0 -4.54,-0.89 q -6.56,0 -6.55,6.18 v 13.77 c 0,3.67 1.77,5.67 5.33,6 a 4.18,4.18 0 0 0 0.88,0.08 18.87,18.87 0 0 0 6.09,-1.26 z"
     id="path18"
     inkscape:connector-curvature="0"
     style="fill:#1d1d1b" />
  <path
     class="cls-1"
     d="M 137.7,29.793112 H 123.76 V 0.42311203 h 14 V 2.613112 h -11.65 v 9.87 h 8 l -0.8,2.31 h -7.23 v 12.93 h 11.62 z"
     id="path20"
     inkscape:connector-curvature="0"
     style="fill:#1d1d1b" />
  <circle
     class="cls-2"
     cx="48.900002"
     cy="17.843111"
     r="3.24"
     id="circle22"
     style="fill:#ffcc03" />
</svg>
